Coordinates
version=1
nRows=17
nColumns=24
inDegrees=yes

Units are S.I. units (second, meters, Newtons, ...)
Angles are in degrees.

endheader
time	pelvis_tilt	pelvis_list	pelvis_rotation	pelvis_tx	pelvis_ty	pelvis_tz	hip_flexion_r	hip_adduction_r	hip_rotation_r	knee_angle_r	ankle_angle_r	subtalar_angle_r	mtp_angle_r	hip_flexion_l	hip_adduction_l	hip_rotation_l	knee_angle_l	ankle_angle_l	subtalar_angle_l	mtp_angle_l	lumbar_extension	lumbar_bending	lumbar_rotation
      0.75900000	      0.08337681	      3.06890360	     10.04212400	      0.02889564	      0.98596729	      0.22627872	     30.67827616	     -6.97080672	     -7.51949152	     -4.14881767	      9.42569510	     -5.53056891	      5.86033586	    -18.81412789	      3.46297776	     12.52406833	    -11.83344929	     17.87594161	     -3.74603753	     -2.50629242	     -3.89369886	     -5.42280670	     -8.79183699
      0.76316667	      0.10338160	      2.98960316	     10.25950404	      0.03527892	      0.98537313	      0.22669731	     30.63172837	     -6.93730764	     -7.39996847	     -4.79563046	      9.41544181	     -6.03236133	      5.88289140	    -19.01535938	      3.21146735	     12.50837939	    -12.15593384	     17.72190352	     -3.53834987	     -2.49266775	     -3.81244017	     -5.33647574	     -8.99852033
      0.76733333	      0.11925278	      2.89947308	     10.48653692	      0.04171778	      0.98480165	      0.22713355	     30.56817425	     -6.88944278	     -7.30849723	     -5.41065862	      9.31457046	     -6.55860176	      5.91906888	    -19.19981282	      2.94269806	     12.48833950	    -12.49622064	     17.54325209	     -3.33555078	     -2.45108905	     -3.71927284	     -5.24196561	     -9.19558548
      0.77150000	      0.13727200	      2.80032980	     10.70653295	      0.04820911	      0.98425159	      0.22760664	     30.49087854	     -6.82063589	     -7.22478818	     -6.00131651	      9.14004471	     -7.10539516	      5.97490377	    -19.37709723	      2.66249038	     12.45174587	    -12.85255578	     17.34571260	     -3.13465986	     -2.37588316	     -3.61977707	     -5.13951560	     -9.39366651
      0.77566667	      0.15833881	      2.69652941	     10.92424938	      0.05473891	      0.98372921	      0.22810543	     30.39618447	     -6.73723492	     -7.14606482	     -6.56281573	      8.90191683	     -7.67142510	      6.06643850	    -19.54094697	      2.37476369	     12.38813221	    -13.23700821	     17.14113582	     -2.93671671	     -2.24621548	     -3.52651889	     -5.03999689	     -9.58060291
      0.77983333	      0.17239007	      2.58714064	     11.13654835	      0.06133652	      0.98322926	      0.22864902	     30.29697121	     -6.63691413	     -7.06836007	     -7.09690888	      8.60166655	     -8.26158243	      6.23967439	    -19.70133324	      2.07873579	     12.33852600	    -13.60359113	     16.88350848	     -2.70237746	     -2.00082999	     -3.40599244	     -4.94632877	     -9.75003575
      0.78400000	      0.18589156	      2.44731435	     11.34164056	      0.06799150	      0.98274748	      0.22920430	     30.19277962	     -6.50027943	     -7.04282722	     -7.60282130	      8.20374013	     -8.81828839	      6.38680388	    -19.84231237	      1.75421912	     12.25807637	    -13.99860707	     16.60387850	     -2.55342879	     -1.78631290	     -3.27133116	     -4.80217353	     -9.93130244
      0.78816667	      0.18176247	      2.29836291	     11.52652814	      0.07471869	      0.98226450	      0.22979885	     30.11243021	     -6.34437432	     -7.03294470	     -8.10304203	      7.72677456	     -9.34384470	      6.52877143	    -19.97405561	      1.42827896	     12.19003071	    -14.36559655	     16.27330706	     -2.38269781	     -1.57628502	     -3.09847290	     -4.64900295	    -10.07863168
      0.79233333	      0.20560159	      2.14000681	     11.70516660	      0.08146561	      0.98182486	      0.23046392	     29.99168422	     -6.15931438	     -7.00705167	     -8.56092012	      7.18848226	     -9.96089835	      8.20303570	    -20.08424729	      1.06832033	     11.92200398	    -14.81359527	     15.93996262	     -1.97078122	      0.83164615	     -2.93548776	     -4.51878704	    -10.05567951
      0.79650000	      0.21963133	      1.97891314	     11.89718946	      0.08823300	      0.98144126	      0.23106881	     29.88029779	     -5.98348707	     -7.04456973	     -9.00912169	      6.55204813	    -10.50751538	      8.25291860	    -20.21719589	      0.73217809	     11.94026182	    -15.20022842	     15.48706187	     -2.03344770	      0.93037127	     -2.79777842	     -4.34668358	    -10.35518256
      0.80066667	      0.22565685	      1.79881833	     12.05278707	      0.09506505	      0.98104854	      0.23176650	     29.78898596	     -5.76494150	     -7.05466909	     -9.45447057	      5.85736659	    -11.07293248	      8.33153893	    -20.32186691	      0.37700632	     11.82302924	    -15.61259011	     15.04546809	     -1.90098064	      1.07444561	     -2.61500219	     -4.16703350	    -10.46580503
      0.80483333	      0.25489718	      1.63013859	     12.20643244	      0.10187944	      0.98071954	      0.23251856	     29.66518943	     -5.53986638	     -7.01065822	     -9.86518994	      5.07766857	    -11.77190568	      8.51341835	    -20.41918817	      0.02045356	     11.63473258	    -16.07646595	     14.57335387	     -1.68657750	      1.39067241	     -2.47211008	     -4.03802184	    -10.58115296
      0.80900000	      0.26583845	      1.41168037	     12.34561146	      0.10876821	      0.98038446	      0.23326075	     29.58008133	     -5.26943116	     -7.04123049	    -10.29462089	      4.27627595	    -12.35235067	      8.69577811	    -20.48082223	     -0.37204220	     11.43791359	    -16.55894827	     14.09858072	     -1.57794182	      1.71607620	     -2.27171441	     -3.82258858	    -10.67009276
      0.81316667	      0.30487228	      1.18837371	     12.45299792	      0.11568371	      0.98009234	      0.23407361	     29.49907118	     -4.97977638	     -7.11853636	    -10.77141141	      3.43458190	    -12.83937472	     10.69524599	    -20.56023868	     -0.78256179	     11.11641283	    -17.03912409	     13.53163388	     -1.25121212	      5.19654202	     -2.09909570	     -3.60223467	    -10.63512009
      0.81733333	      0.29686019	      0.97701497	     12.55069162	      0.12258850	      0.97979320	      0.23488900	     29.47143682	     -4.69947398	     -7.10069256	    -11.25354750	      2.60488362	    -13.36278652	     10.71796959	    -20.59420674	     -1.13717068	     10.98015861	    -17.52465753	     12.89468705	     -1.33887536	      5.29987358	     -1.88321117	     -3.40272863	    -10.78691738
      0.82150000	      0.32674306	      0.74797570	     12.61648168	      0.12951434	      0.97955838	      0.23578104	     29.42639489	     -4.37741653	     -7.07968267	    -11.76229909	      1.75415980	    -13.88464390	     10.79541738	    -20.64435789	     -1.52262549	     10.71035718	    -18.03948318	     12.26410382	     -1.19346204	      5.53755043	     -1.71077895	     -3.17749351	    -10.81553149
      0.82566667	      0.34930812	      0.49897388	     12.66571795	      0.13645552	      0.97934000	      0.23669267	     29.41349107	     -4.03319594	     -7.06664607	    -12.31459752	      0.93667922	    -14.35903935	     10.91419640	    -20.66312742	     -1.91902439	     10.40975560	    -18.58729593	     11.60181643	     -1.07416141	      5.89307098	     -1.51758921	     -2.93195136	    -10.83000705
